<svg xmlns="http://www.w3.org/2000/svg" viewBox="0 0 900 500">
  <defs>
    <style>
      .title { font: bold 18px sans-serif; fill: #333; }
      .subtitle { font: bold 14px sans-serif; fill: #555; }
      .label { font: 12px sans-serif; fill: #333; }
      .small-label { font: 11px sans-serif; fill: #666; }
      .client-box { fill: #e3f2fd; stroke: #1976d2; stroke-width: 2; }
      .server-box { fill: #fff3e0; stroke: #f57c00; stroke-width: 2; }
      .db-box { fill: #f3e5f5; stroke: #7b1fa2; stroke-width: 2; }
      .storage-box { fill: #e8f5e9; stroke: #388e3c; stroke-width: 2; }
      .arrow { stroke: #333; stroke-width: 2; fill: none; marker-end: url(#arrowhead); }
      .stateful { fill: #ffccbc; }
      .stateless { fill: #c8e6c9; }
    </style>
    <marker id="arrowhead" markerWidth="10" markerHeight="10" refX="9" refY="3" orient="auto">
      <polygon points="0 0, 10 3, 0 6" fill="#333" />
    </marker>
  </defs>
  
  <!-- Main Title -->
  <text x="450" y="30" text-anchor="middle" class="title">アーキテクチャ比較</text>
  
  <!-- Session-based Section -->
  <rect x="20" y="50" width="420" height="420" class="stateful" stroke="#ff5722" stroke-width="2" rx="10" opacity="0.3"/>
  <text x="230" y="75" text-anchor="middle" class="subtitle">セッションベース認証 (ステートフル)</text>
  
  <!-- Client -->
  <rect x="50" y="100" width="100" height="60" class="client-box" rx="5"/>
  <text x="100" y="125" text-anchor="middle" class="label">クライアント</text>
  <text x="100" y="145" text-anchor="middle" class="small-label">Cookie:</text>
  <text x="100" y="158" text-anchor="middle" class="small-label">SessionID</text>
  
  <!-- Server 1 -->
  <rect x="210" y="90" width="100" height="60" class="server-box" rx="5"/>
  <text x="260" y="115" text-anchor="middle" class="label">サーバー1</text>
  <text x="260" y="135" text-anchor="middle" class="small-label">セッション</text>
  <text x="260" y="148" text-anchor="middle" class="small-label">チェック</text>
  
  <!-- Server 2 -->
  <rect x="210" y="170" width="100" height="60" class="server-box" rx="5"/>
  <text x="260" y="195" text-anchor="middle" class="label">サーバー2</text>
  <text x="260" y="215" text-anchor="middle" class="small-label">セッション</text>
  <text x="260" y="228" text-anchor="middle" class="small-label">チェック</text>
  
  <!-- Session Store -->
  <rect x="370" y="120" width="60" height="90" class="db-box" rx="5"/>
  <text x="400" y="140" text-anchor="middle" class="label">セッション</text>
  <text x="400" y="155" text-anchor="middle" class="label">ストア</text>
  <text x="400" y="175" text-anchor="middle" class="small-label">Redis/</text>
  <text x="400" y="190" text-anchor="middle" class="small-label">Memcached/</text>
  <text x="400" y="205" text-anchor="middle" class="small-label">DB</text>
  
  <!-- Arrows for Session -->
  <path d="M 150 130 L 210 120" class="arrow"/>
  <path d="M 150 130 L 210 200" class="arrow"/>
  <path d="M 310 120 L 370 155" class="arrow"/>
  <path d="M 310 200 L 370 175" class="arrow"/>
  
  <!-- Session Notes -->
  <rect x="40" y="270" width="380" height="180" fill="white" stroke="#ff5722" stroke-width="1" rx="5"/>
  <text x="230" y="295" text-anchor="middle" class="subtitle">特徴</text>
  
  <text x="50" y="320" class="small-label">✓ サーバー側でセッション状態を管理</text>
  <text x="50" y="340" class="small-label">✓ セッションストアへのアクセスが必要</text>
  <text x="50" y="360" class="small-label">✓ 複数サーバー間でセッション共有が必須</text>
  <text x="50" y="380" class="small-label">✓ セッションの即座の無効化が可能</text>
  <text x="50" y="400" class="small-label">✗ スケーリングが複雑</text>
  <text x="50" y="420" class="small-label">✗ セッションストアがSPOF(単一障害点)</text>
  <text x="50" y="440" class="small-label">✗ サーバーリソース消費が大きい</text>
  
  <!-- JWT Section -->
  <rect x="460" y="50" width="420" height="420" class="stateless" stroke="#4caf50" stroke-width="2" rx="10" opacity="0.3"/>
  <text x="670" y="75" text-anchor="middle" class="subtitle">JWT認証 (ステートレス)</text>
  
  <!-- Client JWT -->
  <rect x="490" y="100" width="100" height="60" class="storage-box" rx="5"/>
  <text x="540" y="125" text-anchor="middle" class="label">クライアント</text>
  <text x="540" y="145" text-anchor="middle" class="small-label">JWT保存</text>
  <text x="540" y="158" text-anchor="middle" class="small-label">(localStorage)</text>
  
  <!-- Server 1 JWT -->
  <rect x="650" y="90" width="100" height="60" class="server-box" rx="5"/>
  <text x="700" y="115" text-anchor="middle" class="label">サーバー1</text>
  <text x="700" y="135" text-anchor="middle" class="small-label">JWT検証</text>
  <text x="700" y="148" text-anchor="middle" class="small-label">(署名確認)</text>
  
  <!-- Server 2 JWT -->
  <rect x="650" y="170" width="100" height="60" class="server-box" rx="5"/>
  <text x="700" y="195" text-anchor="middle" class="label">サーバー2</text>
  <text x="700" y="215" text-anchor="middle" class="small-label">JWT検証</text>
  <text x="700" y="228" text-anchor="middle" class="small-label">(署名確認)</text>
  
  <!-- Server 3 JWT -->
  <rect x="780" y="130" width="90" height="60" class="server-box" rx="5"/>
  <text x="825" y="155" text-anchor="middle" class="label">サーバーN</text>
  <text x="825" y="175" text-anchor="middle" class="small-label">JWT検証</text>
  
  <!-- Arrows for JWT -->
  <path d="M 590 130 L 650 120" class="arrow"/>
  <path d="M 590 130 L 650 200" class="arrow"/>
  <path d="M 590 130 L 780 160" class="arrow"/>
  
  <!-- No DB needed indicator -->
  <text x="820" y="110" text-anchor="middle" class="small-label" fill="#4caf50">※DBアクセス</text>
  <text x="820" y="123" text-anchor="middle" class="small-label" fill="#4caf50">不要!</text>
  
  <!-- JWT Notes -->
  <rect x="480" y="270" width="380" height="180" fill="white" stroke="#4caf50" stroke-width="1" rx="5"/>
  <text x="670" y="295" text-anchor="middle" class="subtitle">特徴</text>
  
  <text x="490" y="320" class="small-label">✓ サーバー側で状態を保持しない</text>
  <text x="490" y="340" class="small-label">✓ 各サーバーが独立してJWTを検証可能</text>
  <text x="490" y="360" class="small-label">✓ 水平スケーリングが容易</text>
  <text x="490" y="380" class="small-label">✓ マイクロサービスアーキテクチャに最適</text>
  <text x="490" y="400" class="small-label">✓ サーバーリソース消費が少ない</text>
  <text x="490" y="420" class="small-label">✗ トークンの即座の無効化が困難</text>
  <text x="490" y="440" class="small-label">✗ トークンサイズが大きい</text>
</svg>